#N canvas 544 478 1150 799 10;
#X obj 79 -64 import mrpeach;
#X floatatom 266 159 3 0 0 0 - - -, f 3;
#X floatatom 293 159 3 0 0 0 - - -, f 3;
#X floatatom 320 159 3 0 0 0 - - -, f 3;
#X floatatom 347 159 3 0 0 0 - - -, f 3;
#X text 232 142 from;
#X obj 99 212 unpackOSC;
#X floatatom 187 238 10 0 0 1 millisecond_delay - -, f 10;
#X obj 99 239 pipelist;
#X obj 30 183 print unpacked;
#X obj 266 135 unpack 0 0 0 0 0;
#X floatatom 375 159 8 0 0 0 - - -, f 8;
#X obj 201 112 route received from;
#X floatatom 201 180 5 0 0 0 - - -, f 5;
#X text 241 180 bytes;
#X obj 30 158 spigot;
#X obj 61 137 tgl 15 0 empty empty empty 17 7 0 10 -262144 -1 -1 0
1;
#X obj 99 88 udpreceive 9999;
#X obj 99 287 s osc_in_msg;
#X text 101 -14 OSC Server;
#X text 209 -78 -Huzzah ESP8266----OSC (wifi)--->PD-------OSC(localhost)------>Wekinator
, f 84;
#X msg 99 16 status;
#X obj 518 234 hball 1;
#X obj 592 235 hball 2;
#X text 181 287 >send input message to all hballs;
#X obj 340 -120 cnv 15 200 30 empty empty HuzzBalls-INPUT 20 12 0 18
-260097 -1 0;
#X text 519 170 [hball id] to create new ball with unique ID.;
#X text 532 194 NOTE:ID in huzzballs.ino has to be modified and loaded
to corresponding huzzah hardware;
#X text 755 337 BALL 1 MAGNETIC FIELDS;
#X obj 717 385 r ball1_magnx;
#N canvas 398 24 1156 1161 TRAINING_HELPER 0;
#N canvas 1190 610 450 300 monitor 0;
#X obj 118 105 spigot;
#X obj 139 176 temperature 1000;
#X obj 103 25 inlet;
#X obj 156 28 inlet;
#X obj 79 233 outlet;
#X obj 152 236 outlet;
#X connect 0 0 1 0;
#X connect 0 0 4 0;
#X connect 1 0 5 0;
#X connect 2 0 0 0;
#X connect 3 0 0 1;
#X restore 443 -813 pd monitor;
#X floatatom 500 -763 5 0 0 0 samples/s - -, f 5;
#X floatatom 443 -787 5 0 0 0 value - -, f 5;
#X obj 498 -835 tgl 15 0 empty empty empty 17 7 0 10 -262144 -1 -1
0 1;
#N canvas 1190 610 450 300 monitor 0;
#X obj 118 105 spigot;
#X obj 139 176 temperature 1000;
#X obj 103 25 inlet;
#X obj 156 28 inlet;
#X obj 79 233 outlet;
#X obj 152 236 outlet;
#X connect 0 0 1 0;
#X connect 0 0 4 0;
#X connect 1 0 5 0;
#X connect 2 0 0 0;
#X connect 3 0 0 1;
#X restore 450 -520 pd monitor;
#X floatatom 507 -470 5 0 0 0 samples/s - -, f 5;
#X floatatom 450 -494 5 0 0 0 value - -, f 5;
#X obj 505 -542 tgl 15 0 empty empty empty 17 7 0 10 -262144 -1 -1
0 8.19836;
#N canvas 1154 574 450 300 rate_limiter 0;
#X obj 54 21 inlet;
#X obj 128 21 inlet;
#X obj 54 67 demux raw lim;
#X obj 53 170 outlet;
#X obj 217 21 inlet;
#X obj 264 143 /;
#X obj 253 66 t b f;
#X msg 249 98 1000;
#X obj 130 114 speedlim 100;
#X connect 0 0 2 0;
#X connect 1 0 2 1;
#X connect 2 0 3 0;
#X connect 2 1 8 0;
#X connect 4 0 6 0;
#X connect 5 0 8 1;
#X connect 6 0 7 0;
#X connect 6 1 5 1;
#X connect 7 0 5 0;
#X connect 8 0 3 0;
#X restore 386 -573 pd rate_limiter;
#X obj 411 -607 tgl 15 0 empty empty on/off 17 7 0 10 -262144 -1 -1
0 1;
#X obj 484 -608 hsl 128 15 0 100 0 0 empty empty sample\ per\ second
-2 -8 0 10 -262144 -1 -1 0 1;
#X floatatom 542 -569 5 0 0 0 samples/s - -, f 5;
#N canvas 927 195 450 300 SIMPLE_MOVING_FILTER 0;
#X floatatom 279 81 5 0 0 0 - - -, f 5;
#X obj 249 52 inlet;
#X obj 72 55 inlet;
#X obj 72 264 outlet;
#X obj 172 53 inlet;
#X text 225 215 SIMPLE MOVING AVERAGE (SMA);
#X text 156 182 SIMPLE MOVING MEDIAN (SMM)->mes robust a canvis;
#X text 243 33 N samples;
#X text 165 6 0-SMM;
#X text 165 19 1-SMA;
#X text 166 33 2-RAW;
#X obj 73 183 median_n 10;
#X obj 168 215 mavg 10;
#X obj 255 122 int;
#X obj 73 96 demux smm sma raw;
#X connect 1 0 0 0;
#X connect 1 0 13 0;
#X connect 2 0 14 0;
#X connect 4 0 14 1;
#X connect 11 0 3 0;
#X connect 12 0 3 0;
#X connect 13 0 12 1;
#X connect 13 0 11 1;
#X connect 14 0 11 0;
#X connect 14 1 12 0;
#X connect 14 2 3 0;
#X restore 388 -372 pd SIMPLE_MOVING_FILTER;
#X obj 455 -428 vradio 15 1 0 3 empty empty empty 0 -8 0 10 -262144
-1 -1 0;
#X text 472 -431 0-SMM;
#X text 473 -415 1-SMA;
#X text 474 -401 2-RAW;
#X obj 533 -404 hsl 128 15 0 100 0 0 empty empty N\ of\ average -2
-8 0 10 -262144 -1 -1 0 1;
#X floatatom 552 -371 5 0 0 0 - - -, f 5;
#N canvas 1190 610 450 300 monitor 0;
#X obj 118 105 spigot;
#X obj 139 176 temperature 1000;
#X obj 103 25 inlet;
#X obj 156 28 inlet;
#X obj 79 233 outlet;
#X obj 152 236 outlet;
#X connect 0 0 1 0;
#X connect 0 0 4 0;
#X connect 1 0 5 0;
#X connect 2 0 0 0;
#X connect 3 0 0 1;
#X restore 449 -321 pd monitor;
#X floatatom 506 -271 5 0 0 0 samples/s - -, f 5;
#X floatatom 449 -295 5 0 0 0 value - -, f 5;
#X obj 504 -343 tgl 15 0 empty empty empty 17 7 0 10 -262144 -1 -1
0 1;
#N canvas 523 472 606 346 smoothing_simple_exp 0;
#X obj 128 184 smooth;
#X obj 164 157 hsl 128 15 0 1 0 0 empty empty empty -2 -8 0 10 -262130
-1 -1 0 1;
#X floatatom 176 177 5 0 0 0 - - -, f 5;
#X text 216 179 (default: 0.15);
#X obj 91 227 outlet;
#X obj 97 48 inlet;
#X obj 166 47 inlet;
#X text 205 49 alpha;
#X obj 28 39 inlet;
#X obj 27 127 demux raw sm;
#X connect 0 0 4 0;
#X connect 1 0 2 0;
#X connect 1 0 0 1;
#X connect 5 0 9 1;
#X connect 6 0 0 1;
#X connect 8 0 9 0;
#X connect 9 0 4 0;
#X connect 9 1 0 0;
#X restore 392 -165 pd smoothing_simple_exp;
#X obj 537 -200 hsl 128 15 0 1 0 0 ema_alpha empty ema_alpha -2 -8
0 10 -262144 -1 -1 0 1;
#X floatatom 561 -166 5 0 0 0 - - -, f 5;
#X obj 474 8 hsl 128 15 0 50 0 0 empty empty compression_factor -2
-8 0 10 -262144 -1 -1 0 1;
#X obj 499 30 tgl 15 0 empty empty limit/compressor 17 7 0 10 -262144
-1 -1 0 1;
#N canvas 609 485 450 300 limit_compressor 0;
#X obj 85 40 inlet;
#X obj 137 42 inlet;
#X obj 190 41 inlet;
#X obj 245 44 inlet;
#X text 134 18 min;
#X text 193 21 max;
#X text 231 17 compressorfactor;
#X text 344 21 filter;
#X obj 333 46 inlet;
#X obj 67 255 outlet;
#X obj 240 114 f;
#X obj 301 71 sel 0 1;
#X msg 239 153 0;
#X obj 31 39 inlet;
#X text 27 15 input;
#X text 81 16 on/off;
#X obj 85 160 limit -20 20 0;
#X obj 36 91 demux raw lm;
#X msg 121 60 1;
#X connect 0 0 17 1;
#X connect 1 0 16 1;
#X connect 2 0 16 2;
#X connect 3 0 10 1;
#X connect 8 0 11 0;
#X connect 10 0 16 3;
#X connect 11 0 12 0;
#X connect 11 1 10 0;
#X connect 12 0 16 3;
#X connect 13 0 17 0;
#X connect 16 0 9 0;
#X connect 17 0 9 0;
#X connect 17 1 16 0;
#X connect 18 0 17 1;
#X restore 390 61 pd limit_compressor;
#X obj 458 -224 tgl 15 0 empty empty on/off 17 7 0 10 -262144 -1 -1
0 1;
#X obj 434 -46 hsl 128 15 -20 20 0 0 empty empty min -2 -8 0 10 -262144
-1 -1 0 1;
#X obj 454 -25 hsl 128 15 -20 20 0 0 empty empty max -2 -8 0 10 -262144
-1 -1 0 1;
#X obj 406 -75 tgl 15 0 empty empty on/off 17 7 0 10 -262144 -1 -1
0 1;
#N canvas 1190 610 450 300 monitor 0;
#X obj 118 105 spigot;
#X obj 139 176 temperature 1000;
#X obj 103 25 inlet;
#X obj 156 28 inlet;
#X obj 79 233 outlet;
#X obj 152 236 outlet;
#X connect 0 0 1 0;
#X connect 0 0 4 0;
#X connect 1 0 5 0;
#X connect 2 0 0 0;
#X connect 3 0 0 1;
#X restore 593 -123 pd monitor;
#X floatatom 650 -73 5 0 0 0 samples/s - -, f 5;
#X floatatom 593 -97 5 0 0 0 value - -, f 5;
#X obj 648 -145 tgl 15 0 empty empty empty 17 7 0 10 -262144 -1 -1
0 1;
#N canvas 1190 610 450 300 monitor 0;
#X obj 118 105 spigot;
#X obj 139 176 temperature 1000;
#X obj 103 25 inlet;
#X obj 156 28 inlet;
#X obj 79 233 outlet;
#X obj 152 236 outlet;
#X connect 0 0 1 0;
#X connect 0 0 4 0;
#X connect 1 0 5 0;
#X connect 2 0 0 0;
#X connect 3 0 0 1;
#X restore 607 106 pd monitor;
#X floatatom 664 156 5 0 0 0 samples/s - -, f 5;
#X floatatom 607 132 5 0 0 0 value - -, f 5;
#X obj 662 84 tgl 15 0 empty empty empty 17 7 0 10 -262144 -1 -1 0
8.19836;
#X obj 714 -702 vsl 15 128 -20 20 0 0 empty empty empty 0 -9 0 10 -262144
-1 -1 0 1;
#X obj 717 -526 vsl 15 128 -20 20 0 0 empty empty empty 0 -9 0 10 -262144
-1 -1 0 1;
#X obj 715 -359 vsl 15 128 -20 20 0 0 empty empty empty 0 -9 0 10 -262144
-1 -1 0 1;
#X obj 719 -206 vsl 15 128 -20 20 0 0 empty empty empty 0 -9 0 10 -262144
-1 -1 0 1;
#X obj 723 0 vsl 15 128 -20 20 0 0 empty empty empty 0 -9 0 10 -262144
-1 -1 0 1;
#N canvas 156 24 585 580 scanormalizele 0;
#X obj 154 23 inlet;
#X text 194 22 value;
#X obj 278 35 inlet;
#X text 323 26 min;
#X obj 391 30 inlet;
#X text 430 30 max;
#X obj 152 471 outlet;
#X text 198 473 result;
#X obj 156 280 sel 0;
#X obj 156 232 -;
#X obj 198 324 expr $f1/($f3-$f2);
#X msg 132 326 0;
#X msg 394 174 -20;
#X msg 430 176 20;
#X obj 443 96 loadbang;
#X connect 0 0 9 0;
#X connect 2 0 9 1;
#X connect 2 0 10 1;
#X connect 4 0 10 2;
#X connect 8 0 11 0;
#X connect 8 1 10 0;
#X connect 9 0 8 0;
#X connect 10 0 6 0;
#X connect 11 0 6 0;
#X connect 12 0 9 1;
#X connect 12 0 10 1;
#X connect 13 0 10 2;
#X connect 14 0 12 0;
#X connect 14 0 13 0;
#X restore 392 158 pd scanormalizele;
#X floatatom 389 209 5 0 0 0 - - -, f 5;
#X floatatom 611 -20 5 0 0 0 - - -, f 5;
#X floatatom 604 -47 5 0 0 0 - - -, f 5;
#N canvas 263 572 450 300 absolute 0;
#X obj 107 21 inlet;
#X obj 181 21 inlet;
#X obj 106 170 outlet;
#X obj 107 66 demux raw abs;
#X obj 183 114 abs;
#X connect 0 0 3 0;
#X connect 1 0 3 1;
#X connect 3 0 2 0;
#X connect 3 1 4 0;
#X connect 4 0 2 0;
#X restore 384 -671 pd absolute;
#X obj 443 -709 tgl 15 0 empty empty on/off 17 7 0 10 -262144 -1 -1
0 1;
#X msg 428 116 0;
#X obj 384 -861 r training_in;
#X obj 268 122 s training_out;
#X obj 889 -699 plot_auto training_in;
#X obj 898 -511 plot_auto training_out;
#X obj 888 -747 r training_in;
#X obj 900 -547 r training_out;
#X obj 968 -246 bng 15 250 50 0 empty empty empty 17 7 0 10 -262144
-1 -1;
#X floatatom 927 -181 5 0 0 0 minimum - -, f 5;
#X floatatom 997 -156 5 0 0 0 maximum - -, f 5;
#X obj 927 -211 tof/streamMinMax;
#N canvas 1069 439 859 559 INPUT_SELCTOR 0;
#X obj 440 15 inlet;
#X obj 127 49 inlet;
#X obj 293 81 r ball1_accy;
#X obj 333 110 r ball1_accz;
#X obj 364 137 r ball1_magnx;
#X obj 401 158 r ball1_magny;
#X obj 438 192 r ball1_magnz;
#X obj 263 50 r ball1_accx;
#X obj 261 255 mux accx accy accz magnx magny magnz;
#X obj 598 147 sel 0 1 2 3 4 5;
#X obj 187 342 spigot;
#X obj 185 383 s training_in;
#X obj 595 353 outlet;
#X msg 590 232 symbol acc_x;
#X msg 603 206 symbol acc_y;
#X msg 628 175 symbol acc_z;
#X msg 634 272 symbol magn_x;
#X msg 657 301 symbol magn_y;
#X msg 675 329 symbol magn_z;
#X connect 0 0 8 6;
#X connect 0 0 9 0;
#X connect 1 0 10 1;
#X connect 2 0 8 1;
#X connect 3 0 8 2;
#X connect 4 0 8 3;
#X connect 5 0 8 4;
#X connect 6 0 8 5;
#X connect 7 0 8 0;
#X connect 8 0 10 0;
#X connect 9 0 13 0;
#X connect 9 1 14 0;
#X connect 9 2 15 0;
#X connect 9 3 16 0;
#X connect 9 4 17 0;
#X connect 9 5 18 0;
#X connect 10 0 11 0;
#X connect 13 0 12 0;
#X connect 14 0 12 0;
#X connect 15 0 12 0;
#X connect 16 0 12 0;
#X connect 17 0 12 0;
#X connect 18 0 12 0;
#X restore 823 -818 pd INPUT_SELCTOR;
#X symbolatom 815 -774 10 0 0 0 - - -, f 10;
#X obj 915 -854 hradio 15 1 0 6 empty empty empty 0 -8 0 10 -262144
-1 -1 0;
#X text 934 -823 >select variable to train;
#X obj 811 -863 tgl 15 0 empty empty empty 17 7 0 10 -262144 -1 -1
0 1;
#X obj 898 -296 r training_in;
#X obj 934 -83 r training_in;
#X obj 996 -26 amplitude_n 2;
#X floatatom 1091 129 5 0 0 0 - - -, f 5;
#X obj 930 170 bng 15 250 50 0 empty empty empty 17 7 0 10 -262144
-1 -1;
#X obj 985 96 sel 1;
#X obj 1000 190 bng 15 250 50 0 empty empty empty 17 7 0 10 -262144
-1 -1;
#X obj 987 140 speedlim 200;
#X floatatom 1085 32 5 0 0 0 - - -, f 5;
#X obj 985 61 > 30;
#X connect 0 0 2 0;
#X connect 0 0 41 0;
#X connect 0 1 1 0;
#X connect 3 0 0 1;
#X connect 4 0 6 0;
#X connect 4 0 42 0;
#X connect 4 1 5 0;
#X connect 7 0 4 1;
#X connect 8 0 4 0;
#X connect 8 0 12 0;
#X connect 9 0 8 1;
#X connect 10 0 8 2;
#X connect 10 0 11 0;
#X connect 12 0 19 0;
#X connect 12 0 23 0;
#X connect 13 0 12 1;
#X connect 17 0 12 2;
#X connect 17 0 18 0;
#X connect 19 0 21 0;
#X connect 19 0 43 0;
#X connect 19 1 20 0;
#X connect 22 0 19 1;
#X connect 23 0 28 0;
#X connect 23 0 33 0;
#X connect 24 0 25 0;
#X connect 24 0 23 2;
#X connect 26 0 28 4;
#X connect 27 0 28 5;
#X connect 28 0 37 0;
#X connect 28 0 46 0;
#X connect 28 0 54 0;
#X connect 29 0 23 1;
#X connect 30 0 28 2;
#X connect 30 0 49 0;
#X connect 31 0 28 3;
#X connect 31 0 48 0;
#X connect 32 0 28 1;
#X connect 33 0 35 0;
#X connect 33 0 44 0;
#X connect 33 1 34 0;
#X connect 36 0 33 1;
#X connect 37 0 39 0;
#X connect 37 0 45 0;
#X connect 37 1 38 0;
#X connect 40 0 37 1;
#X connect 46 0 47 0;
#X connect 50 0 8 0;
#X connect 51 0 50 1;
#X connect 52 0 46 1;
#X connect 53 0 0 0;
#X connect 53 0 50 0;
#X connect 57 0 55 0;
#X connect 58 0 56 0;
#X connect 59 0 62 0;
#X connect 62 0 60 0;
#X connect 62 1 61 0;
#X connect 63 0 64 0;
#X connect 65 0 63 1;
#X connect 67 0 63 0;
#X connect 68 0 62 0;
#X connect 69 0 70 0;
#X connect 70 0 76 0;
#X connect 70 0 77 0;
#X connect 73 0 72 0;
#X connect 73 0 75 0;
#X connect 75 0 74 0;
#X connect 77 0 71 0;
#X connect 77 0 73 0;
#X restore 508 269 pd TRAINING_HELPER;
#X text 626 269 >> helper for filtering \, calibration \, scale \,
etc.;
#N canvas 179 429 539 586 SEND_TO_WEKINATOR 0;
#X msg 104 232 disconnect;
#X obj 192 393 tgl 15 0 empty empty empty 17 7 0 10 -262144 -1 -1 0
1;
#X floatatom 240 260 5 0 0 0 - - -, f 5;
#X msg 70 260 connect 127.0.0.1 6448;
#X obj 197 358 mrpeach/udpsend;
#X obj 195 223 mrpeach/packOSC;
#X obj 94 31 inlet;
#X obj 91 63 sel 0 1;
#X obj 190 427 outlet;
#X obj 285 -2 r w_input4;
#X obj 227 -72 r w_input1;
#X obj 249 -51 r w_input2;
#X obj 273 -29 r w_input3;
#X obj 330 51 r w_input6;
#X obj 312 24 r w_input5;
#X obj 179 156 pack f f f f f f;
#X msg 195 179 send /wek/inputs \$1 \$2 \$3 \$4 \$5 \$6;
#X connect 0 0 4 0;
#X connect 3 0 4 0;
#X connect 4 0 1 0;
#X connect 4 0 8 0;
#X connect 5 0 4 0;
#X connect 5 1 2 0;
#X connect 6 0 7 0;
#X connect 7 0 0 0;
#X connect 7 1 3 0;
#X connect 9 0 15 3;
#X connect 10 0 15 0;
#X connect 11 0 15 1;
#X connect 12 0 15 2;
#X connect 13 0 15 5;
#X connect 14 0 15 4;
#X connect 15 0 16 0;
#X connect 16 0 5 0;
#X restore 642 46 pd SEND_TO_WEKINATOR;
#X obj 642 7 tgl 15 0 empty empty Connect 17 7 0 10 -262144 -1 -1 0
1;
#X obj 642 84 tgl 15 0 empty empty status 17 7 0 10 -262144 -1 -1 0
1;
#X obj 71 451 amplitude_n 2;
#X obj 70 516 sel 1 0;
#X obj 268 548 speedlim 200;
#X obj 271 450 amplitude_n 2;
#X obj 270 515 sel 1 0;
#X obj 362 548 speedlim 200;
#X obj 452 544 speedlim 200;
#X obj 455 446 amplitude_n 2;
#X obj 454 511 sel 1 0;
#X obj 546 544 speedlim 200;
#X obj 717 432 smooth;
#N canvas 144 24 585 580 scanormalizele 0;
#X obj 154 23 inlet;
#X text 194 22 value;
#X obj 278 35 inlet;
#X text 323 26 min;
#X obj 391 30 inlet;
#X text 430 30 max;
#X obj 152 471 outlet;
#X text 198 473 result;
#X obj 156 280 sel 0;
#X obj 156 232 -;
#X obj 198 324 expr $f1/($f3-$f2);
#X msg 132 326 0;
#X obj 443 96 loadbang;
#X msg 394 174 -45;
#X msg 430 176 45;
#X connect 0 0 9 0;
#X connect 2 0 9 1;
#X connect 2 0 10 1;
#X connect 4 0 10 2;
#X connect 8 0 11 0;
#X connect 8 1 10 0;
#X connect 9 0 8 0;
#X connect 10 0 6 0;
#X connect 11 0 6 0;
#X connect 12 0 13 0;
#X connect 12 0 14 0;
#X connect 13 0 9 1;
#X connect 13 0 10 1;
#X connect 14 0 10 2;
#X restore 718 512 pd scanormalizele;
#X obj 717 470 limit -45 45 0;
#X obj 719 564 s w_input1;
#X obj 854 438 smooth;
#N canvas 144 24 585 580 scanormalizele 0;
#X obj 154 23 inlet;
#X text 194 22 value;
#X obj 278 35 inlet;
#X text 323 26 min;
#X obj 391 30 inlet;
#X text 430 30 max;
#X obj 152 471 outlet;
#X text 198 473 result;
#X obj 156 280 sel 0;
#X obj 156 232 -;
#X obj 198 324 expr $f1/($f3-$f2);
#X msg 132 326 0;
#X obj 443 96 loadbang;
#X msg 394 174 -45;
#X msg 430 176 45;
#X connect 0 0 9 0;
#X connect 2 0 9 1;
#X connect 2 0 10 1;
#X connect 4 0 10 2;
#X connect 8 0 11 0;
#X connect 8 1 10 0;
#X connect 9 0 8 0;
#X connect 10 0 6 0;
#X connect 11 0 6 0;
#X connect 12 0 13 0;
#X connect 12 0 14 0;
#X connect 13 0 9 1;
#X connect 13 0 10 1;
#X connect 14 0 10 2;
#X restore 855 518 pd scanormalizele;
#X obj 854 476 limit -45 45 0;
#X obj 854 391 r ball1_magny;
#X obj 856 570 s w_input2;
#X obj 986 429 smooth;
#N canvas 132 24 585 580 scanormalizele 0;
#X obj 154 23 inlet;
#X text 194 22 value;
#X obj 278 35 inlet;
#X text 323 26 min;
#X obj 391 30 inlet;
#X text 430 30 max;
#X obj 152 471 outlet;
#X text 198 473 result;
#X obj 156 280 sel 0;
#X obj 156 232 -;
#X obj 198 324 expr $f1/($f3-$f2);
#X msg 132 326 0;
#X obj 443 96 loadbang;
#X msg 394 174 -45;
#X msg 430 176 45;
#X connect 0 0 9 0;
#X connect 2 0 9 1;
#X connect 2 0 10 1;
#X connect 4 0 10 2;
#X connect 8 0 11 0;
#X connect 8 1 10 0;
#X connect 9 0 8 0;
#X connect 10 0 6 0;
#X connect 11 0 6 0;
#X connect 12 0 13 0;
#X connect 12 0 14 0;
#X connect 13 0 9 1;
#X connect 13 0 10 1;
#X connect 14 0 10 2;
#X restore 987 509 pd scanormalizele;
#X obj 986 467 limit -45 45 0;
#X obj 986 382 r ball1_magnz;
#X obj 988 561 s w_input3;
#X obj 72 632 s w_input4;
#X obj 267 625 s w_input5;
#X obj 456 624 s w_input6;
#X msg 70 576 0.9;
#X msg 164 576 0.1;
#X msg 270 575 0.9;
#X msg 364 575 0.1;
#X msg 454 570 0.9;
#X msg 548 571 0.1;
#X text 256 346 BALL 1 ACCELERATIONS;
#X obj 72 387 r ball1_accx;
#X obj 272 386 r ball1_accy;
#X obj 456 382 r ball1_accz;
#X obj 68 549 speedlim 200;
#X obj 162 549 speedlim 200;
#X obj 71 483 > 30;
#X obj 271 482 > 30;
#X obj 455 478 > 30;
#X text 155 25 Receives osc messages from Huzzah hardware;
#X connect 6 0 8 0;
#X connect 6 1 7 0;
#X connect 6 1 8 1;
#X connect 8 0 18 0;
#X connect 10 0 1 0;
#X connect 10 1 2 0;
#X connect 10 2 3 0;
#X connect 10 3 4 0;
#X connect 10 4 11 0;
#X connect 12 0 13 0;
#X connect 12 1 10 0;
#X connect 15 0 9 0;
#X connect 16 0 15 1;
#X connect 17 0 6 0;
#X connect 17 0 15 0;
#X connect 17 1 12 0;
#X connect 21 0 17 0;
#X connect 29 0 45 0;
#X connect 32 0 34 0;
#X connect 33 0 32 0;
#X connect 35 0 74 0;
#X connect 36 0 72 0;
#X connect 36 1 73 0;
#X connect 37 0 64 0;
#X connect 38 0 75 0;
#X connect 39 0 37 0;
#X connect 39 1 40 0;
#X connect 40 0 65 0;
#X connect 41 0 66 0;
#X connect 42 0 76 0;
#X connect 43 0 41 0;
#X connect 43 1 44 0;
#X connect 44 0 67 0;
#X connect 45 0 47 0;
#X connect 46 0 48 0;
#X connect 47 0 46 0;
#X connect 49 0 51 0;
#X connect 50 0 53 0;
#X connect 51 0 50 0;
#X connect 52 0 49 0;
#X connect 54 0 56 0;
#X connect 55 0 58 0;
#X connect 56 0 55 0;
#X connect 57 0 54 0;
#X connect 62 0 59 0;
#X connect 63 0 59 0;
#X connect 64 0 60 0;
#X connect 65 0 60 0;
#X connect 66 0 61 0;
#X connect 67 0 61 0;
#X connect 69 0 35 0;
#X connect 70 0 38 0;
#X connect 71 0 42 0;
#X connect 72 0 62 0;
#X connect 73 0 63 0;
#X connect 74 0 36 0;
#X connect 75 0 39 0;
#X connect 76 0 43 0;
