#N canvas 1311 313 1324 632 10;
#X obj 958 48 hsl 128 15 0 1 0 0 empty empty empty -2 -8 0 10 -262144
-1 -1 0 1;
#X obj 908 -30 hsl 128 15 0 127 0 0 empty empty empty -2 -8 0 10 -262144
-1 -1 0 1;
#X obj 932 0 hsl 128 15 0 127 0 0 empty empty empty -2 -8 0 10 -262144
-1 -1 0 1;
#X obj 710 71 bng 15 250 50 0 empty empty empty 17 7 0 10 -262144 -1
-1;
#N canvas 478 491 833 268 PERCUSION 0;
#N canvas 277 24 340 432 ARGO 0;
#X obj 101 101 cnv 6 132 33 empty ColorForm Kick 105 8 1 14 -262144
-1 0;
#X obj 100 101 bng 12 50 50 0 \$0-A \$0-B empty 14 6 1 9 -262144 -1
-1;
#X obj 101 101 cnv 4 10 4 empty empty empty 20 12 0 14 -260097 -66577
0;
#X obj 101 130 cnv 4 10 4 empty empty empty 20 12 0 14 -1 -66577 0
;
#X obj -2 53 cnv 15 60 30 empty empty empty 20 12 0 14 -24198 -66577
0;
#N canvas 423 182 440 297 Help 0;
#X obj 17 -168 cnv 15 400 200 empty empty empty 20 12 0 14 -233017
-66577 0;
#X text 20 -169 Citation;
#X text 18 -225 Based on Andy Farnell's work: "efficient-percussion.pd"
;
#X obj 18 32 pddp/pddplink http://obiwannabe.co.uk;
#X obj 18 -212 pddp/pddplink http://puredata.hurleur.com/sujet-1093-fairly-efficient-analog-drums
;
#X text 34 -154 "It's 3 techno drums that are quite efficient. The
kick and snare contain no oscillators but use a wrapped line segment.
Total DSP count - 4 multiplies and a cos. This trick is extended in
the snare with a feedback around a second function which results in
a chaotic band of noise around the center frequency. Becuase we use
[vline~] and always start on the same phase they sound pretty tight."
;
#X text 130 -187 ajf;
#X text 17 -199 efficient kick drum;
#X text 4 -240 Kick = Grosse caisse;
#X restore 5 59 pd Help;
#X obj 39 96 cnv 15 60 20 empty empty empty 20 12 0 14 -261682 -66577
0;
#X obj 103 117 hsl 129 12 30.5 36.1 0 1 \$0-A ColorTime 31.7 3 7 1
9 -188398 -1 -1 2800 0;
#X obj 234 394 cnv 15 54 25 empty empty empty 20 12 0 14 -24198 -66577
0;
#N canvas 350 196 313 131 ???? 0;
#X obj 3 83 cnv 15 300 38 empty empty empty 20 12 0 14 -224896 -66577
0;
#X obj 3 6 cnv 18 300 70 empty empty ARGOPdMiniModules 3 10 1 14 -4033
-1 0;
#X obj 26 26 cnv 10 10 10 empty empty Gerard 0 5 1 11 -4033 -1 0;
#X obj 64 26 cnv 10 10 10 empty empty Paresys 0 5 1 11 -4033 -1 0;
#X obj 7 50 pddp/pddplink http://pagesperso-orange.fr/Paresys/ARGOPd/
;
#X obj 7 37 pddp/pddplink http://gerard.paresys.free.fr/ARGOPd/;
#X text 8 85 Construit sous / Build under Pd 0.43.4-extended;
#X obj 17 100 pddp/pddplink http://puredata.info/downloads/pd-extended
;
#X restore 238 398 pd ????;
#X obj 141 103 tgl 12 1 \$0-A \$0-B On 15 6 1 9 -262144 -1 -1 1 1;
#X obj 40 408 outlet~;
#X obj 100 74 inlet;
#X text 51 94 Bang ->;
#N canvas 604 279 156 161 label 0;
#X msg 56 86 label \$1;
#X obj 56 63 tosymbol;
#X obj 56 39 int;
#X obj 56 15 inlet;
#X obj 56 110 outlet;
#X obj 105 35 * 10;
#X obj 121 67 / 10;
#X connect 0 0 4 0;
#X connect 1 0 0 0;
#X connect 2 0 6 0;
#X connect 3 0 5 0;
#X connect 5 0 2 0;
#X connect 6 0 1 0;
#X restore 31 119 pd label;
#X text -40 27 Based on Andy Farnell's work: "efficient-percussion.pd"
;
#X obj 95 257 vline~;
#X obj 40 383 *~;
#X obj 40 358 cos~;
#X obj 40 334 *~;
#X obj 40 311 *~;
#X obj 55 209 t f f;
#X obj 40 287 *~;
#X msg 95 235 1 0 0 \, 0 \$1 0;
#X msg 55 185 70;
#X obj 55 235 / 29;
#X msg 180 50 33.9;
#X msg 143 50 30.5;
#X msg 218 50 36.1;
#X obj 141 407 switch~;
#X obj 56 158 t b b;
#X text 210 81 4 11 2013;
#X connect 1 0 30 0;
#X connect 7 0 14 0;
#X connect 7 0 25 1;
#X connect 10 0 29 0;
#X connect 12 0 1 0;
#X connect 14 0 7 0;
#X connect 16 0 17 1;
#X connect 16 0 22 0;
#X connect 16 0 19 1;
#X connect 17 0 11 0;
#X connect 18 0 17 0;
#X connect 19 0 18 0;
#X connect 20 0 19 0;
#X connect 21 0 25 0;
#X connect 21 1 23 0;
#X connect 22 0 20 1;
#X connect 22 0 20 0;
#X connect 23 0 16 0;
#X connect 24 0 21 0;
#X connect 25 0 22 1;
#X connect 26 0 7 0;
#X connect 27 0 7 0;
#X connect 28 0 7 0;
#X connect 30 0 24 0;
#X connect 30 1 7 0;
#X coords 0 -1 1 1 153 35 1 100 100;
#X restore 41 2 pd ARGO;
#X obj 41 -23 bng 15 250 50 0 empty empty empty 17 7 0 10 -262144 -1
-1;
#N canvas 323 22 346 489 ARGO 0;
#X obj 101 101 cnv 6 132 33 empty ColorForm Snare 95 8 1 14 -262144
-1 0;
#X obj 100 101 bng 12 50 50 0 \$0-A \$0-B empty 14 6 1 9 -262144 -1
-1;
#X obj 101 101 cnv 4 10 4 empty empty empty 20 12 0 14 -260097 -66577
0;
#X obj 101 130 cnv 4 10 4 empty empty empty 20 12 0 14 -1 -66577 0
;
#X obj -42 97 cnv 15 60 30 empty empty empty 20 12 0 14 -24198 -66577
0;
#N canvas 423 182 440 297 Help 0;
#X obj 17 -168 cnv 15 400 200 empty empty empty 20 12 0 14 -233017
-66577 0;
#X text 20 -169 Citation;
#X text 18 -225 Based on Andy Farnell's work: "efficient-percussion.pd"
;
#X obj 18 32 pddp/pddplink http://obiwannabe.co.uk;
#X obj 18 -212 pddp/pddplink http://puredata.hurleur.com/sujet-1093-fairly-efficient-analog-drums
;
#X text 130 -187 ajf;
#X text 17 -199 efficient snare drum;
#X text 32 -41 "The theory is FM \, or rather chaos theory for numerical
systems. The feedback is used so that the FM system modulates itself.
At just the right settings it becomes a noise generator.";
#X text 4 -240 Snare = Snare drum = Caisse claire;
#X text 34 -154 "It's 3 techno drums that are quite efficient. The
kick and snare contain no oscillators but use a wrapped line segment.
Total DSP count - 4 multiplies and a cos. This trick is extended in
the snare with a feedback around a second function which results in
a chaotic band of noise around the center frequency. Because we use
[vline~] and always start on the same phase they sound pretty tight."
;
#X restore -35 103 pd Help;
#X obj 39 96 cnv 15 60 20 empty empty empty 20 12 0 14 -261682 -66577
0;
#X obj 103 117 hsl 129 12 10 500 1 1 \$0-A ColorTime 33 3 7 1 9 -188398
-1 -1 4000 0;
#X obj 237 453 cnv 15 54 25 empty empty empty 20 12 0 14 -24198 -66577
0;
#N canvas 350 196 313 131 ???? 0;
#X obj 3 83 cnv 15 300 38 empty empty empty 20 12 0 14 -224896 -66577
0;
#X obj 3 6 cnv 18 300 70 empty empty ARGOPdMiniModules 3 10 1 14 -4033
-1 0;
#X obj 26 26 cnv 10 10 10 empty empty Gerard 0 5 1 11 -4033 -1 0;
#X obj 64 26 cnv 10 10 10 empty empty Paresys 0 5 1 11 -4033 -1 0;
#X obj 7 50 pddp/pddplink http://pagesperso-orange.fr/Paresys/ARGOPd/
;
#X obj 7 37 pddp/pddplink http://gerard.paresys.free.fr/ARGOPd/;
#X text 8 85 Construit sous / Build under Pd 0.43.4-extended;
#X obj 17 100 pddp/pddplink http://puredata.info/downloads/pd-extended
;
#X restore 241 457 pd ????;
#X obj 141 103 tgl 12 1 \$0-A \$0-B On 15 6 1 9 -262144 -1 -1 1 1;
#X obj 186 462 switch~;
#X obj 121 280 vline~;
#X obj 106 437 *~;
#X obj 79 334 cos~;
#X obj 94 229 t f f;
#X obj 79 311 *~;
#X obj 106 462 outlet~;
#X obj 100 74 inlet;
#X obj 121 310 *~;
#X obj 106 414 cos~;
#X obj 64 383 *~;
#X obj 121 344 *~;
#X obj 94 255 /;
#X msg 121 255 1 0 0 \, 0 \$1 3;
#X obj -20 372 zexy/pack~;
#X obj -20 396 zexy/unpack~;
#X msg 18 203 90;
#X msg 64 203 70;
#X obj 48 178 del 5;
#X text 51 94 Bang ->;
#X msg 123 201 6;
#N canvas 604 279 156 161 label 0;
#X msg 56 86 label \$1;
#X obj 56 63 tosymbol;
#X obj 56 39 int;
#X obj 56 15 inlet;
#X obj 56 110 outlet;
#X connect 0 0 4 0;
#X connect 1 0 0 0;
#X connect 2 0 1 0;
#X connect 3 0 2 0;
#X restore 31 119 pd label;
#X obj 79 359 +~ 5;
#X text -38 42 Based on Andy Farnell's work: "efficient-percussion.pd"
;
#X text -12 355 feedback;
#X obj 85 153 t b b;
#X text 210 81 4 11 2013;
#X connect 1 0 36 0;
#X connect 7 0 15 0;
#X connect 7 0 32 0;
#X connect 10 0 11 0;
#X connect 12 0 16 0;
#X connect 12 0 19 0;
#X connect 12 0 19 1;
#X connect 13 0 25 0;
#X connect 13 0 17 0;
#X connect 14 0 33 0;
#X connect 15 0 23 0;
#X connect 15 1 24 0;
#X connect 16 0 14 0;
#X connect 18 0 1 0;
#X connect 19 0 22 0;
#X connect 19 0 22 1;
#X connect 20 0 13 0;
#X connect 21 0 20 0;
#X connect 22 0 13 1;
#X connect 23 0 16 1;
#X connect 24 0 12 0;
#X connect 25 0 26 0;
#X connect 26 0 21 0;
#X connect 29 0 27 0;
#X connect 29 0 28 0;
#X connect 29 0 7 0;
#X connect 31 0 23 1;
#X connect 32 0 7 0;
#X connect 33 0 21 1;
#X connect 36 0 29 0;
#X connect 36 1 31 0;
#X coords 0 -1 1 1 134 35 1 100 100;
#X restore 381 10 pd ARGO;
#X obj 378 -16 bng 15 250 50 0 empty empty empty 17 7 0 10 -262144
-1 -1;
#N canvas 1166 586 450 300 gun_gas 0;
#N canvas 623 269 487 526 gas 0;
#X obj 47 267 *~;
#X obj 63 127 line~;
#X obj 134 155 noise~;
#X msg 137 103 0;
#X obj 205 129 line~;
#X obj 78 290 +~;
#X obj 82 338 biquad~;
#X msg 95 317 1.84252 -0.866142 -0.0787402 -0.677165;
#X obj 63 155 *~;
#X obj 134 200 *~;
#X obj 64 177 *~ 10000;
#X obj 64 223 *~ 10000;
#X obj 136 448 bp~ 400 7;
#X obj 146 431 clip~ -0.1 0.2;
#X obj 79 448 hip~ 30;
#X obj 205 156 *~;
#X obj 135 223 *~ 0.02;
#X obj 80 484 *~ 0.3;
#X obj 148 280 loadbang;
#X obj 65 244 osc~;
#X obj 64 201 osc~;
#X obj 135 177 bp~ 900 1;
#X obj 205 178 *~;
#X obj 81 359 *~ 0.1;
#X obj 9 386 bp~ 400 1;
#X obj 81 386 bp~ 800 1;
#X obj 164 387 bp~ 1600 1;
#X obj 111 32 t b b b;
#X obj 32 449 *~ 0.9;
#X text 75 -12 AK47 gas venting 2 + reverb;
#X obj 99 520 outlet~;
#X obj 118 11 inlet;
#X obj 76 77 f 10;
#X obj 227 77 f 2000;
#X msg 205 107 1 0 \, 0 \$1;
#X msg 62 104 1 0 \, 0 \$1;
#X obj 329 32 inlet;
#X obj 435 37 inlet;
#X floatatom 297 184 5 0 0 0 - - -, f 5;
#X connect 0 0 5 0;
#X connect 1 0 8 0;
#X connect 1 0 8 1;
#X connect 1 0 0 0;
#X connect 2 0 21 0;
#X connect 3 0 19 1;
#X connect 3 0 20 1;
#X connect 4 0 15 0;
#X connect 4 0 15 1;
#X connect 5 0 6 0;
#X connect 6 0 23 0;
#X connect 7 0 6 0;
#X connect 8 0 10 0;
#X connect 9 0 16 0;
#X connect 10 0 20 0;
#X connect 11 0 19 0;
#X connect 12 0 17 0;
#X connect 13 0 14 0;
#X connect 13 0 12 0;
#X connect 14 0 17 0;
#X connect 15 0 22 0;
#X connect 15 0 22 1;
#X connect 16 0 5 1;
#X connect 17 0 30 0;
#X connect 18 0 7 0;
#X connect 19 0 0 1;
#X connect 20 0 11 0;
#X connect 21 0 9 0;
#X connect 22 0 9 1;
#X connect 23 0 24 0;
#X connect 23 0 25 0;
#X connect 23 0 26 0;
#X connect 24 0 13 0;
#X connect 24 0 28 0;
#X connect 25 0 13 0;
#X connect 25 0 28 0;
#X connect 26 0 13 0;
#X connect 26 0 28 0;
#X connect 27 0 32 0;
#X connect 27 1 3 0;
#X connect 27 2 33 0;
#X connect 28 0 17 0;
#X connect 31 0 27 0;
#X connect 32 0 35 0;
#X connect 33 0 34 0;
#X connect 34 0 4 0;
#X connect 35 0 1 0;
#X connect 36 0 32 1;
#X connect 36 0 38 0;
#X connect 37 0 33 1;
#X restore 1007 730 pd gas;
#X obj 980 809 outlet~;
#X obj 1038 681 t b f;
#X obj 1000 640 route bang float;
#X msg 1111 695 2000;
#X msg 1120 727 200;
#X obj 997 579 inlet trig;
#X obj 1157 582 inlet reverb;
#X msg 996 668 10;
#X connect 0 0 1 0;
#X connect 2 0 0 0;
#X connect 2 1 0 1;
#X connect 3 0 8 0;
#X connect 3 1 2 0;
#X connect 4 0 0 2;
#X connect 5 0 0 2;
#X connect 6 0 3 0;
#X connect 7 0 0 2;
#X connect 8 0 2 0;
#X restore 570 21 pd gun_gas;
#N canvas 1166 586 696 818 gun_shot~ 0;
#X obj 1381 458 noise~;
#X obj 1381 529 *~;
#X obj 1380 507 clip~ -0.3 0.3;
#X obj 1235 620 cos~;
#X obj 1236 595 +~;
#X text 1211 413 freq;
#X text 1276 645 amp;
#X obj 1269 348 *~;
#X obj 1269 369 *~;
#X obj 1253 527 noise~;
#X obj 1252 550 *~;
#X obj 1269 392 *~;
#X obj 1268 417 *~;
#X obj 1304 527 *~ 0.33;
#X obj 1235 485 phasor~;
#X obj 1251 571 lop~;
#X obj 1234 441 *~ 5000;
#X obj 1234 463 +~ 100;
#X obj 1353 693 *~;
#X obj 1390 846 *~ 2.5;
#X obj 1182 845 *~ 2;
#X obj 1253 787 * 4600;
#X obj 1163 787 * 3600;
#X obj 1500 662 * 1;
#X obj 1270 319 line~;
#X msg 1270 297 1 0 \, 0 25;
#X obj 1382 692 *~;
#X obj 1382 358 *~;
#X obj 1382 379 *~;
#X obj 1382 402 *~;
#X obj 1381 427 *~;
#X obj 1383 329 line~;
#X obj 1380 481 *~ 100;
#X msg 1500 639 0.913;
#X obj 1553 846 *~ 6;
#X obj 1475 846 *~ 5;
#X obj 1381 551 hip~ 12;
#X obj 1346 255 t b b;
#X obj 1347 235 bng 15 250 50 0 empty empty empty 0 -6 0 8 -262144
-1 -1;
#X obj 1554 811 bp~ 1 3;
#X obj 1571 782 * 800;
#X obj 1500 785 * 975;
#X obj 1475 810 bp~ 1 5;
#X obj 1418 787 * 1222;
#X obj 1336 787 * 2620;
#X obj 1306 847 *~ 3;
#X obj 1500 617 loadbang;
#X text 1297 210 AK47 shell detonation;
#X obj 1389 892 clip~ -1 1;
#X obj 1383 287 del 10;
#X obj 1388 810 bp~ 1 3;
#X obj 1307 816 bp~ 1 2;
#X obj 1127 815 bp~ 1 2;
#X obj 1216 814 bp~ 1 2;
#X msg 1383 307 1 0 \, 0 1700;
#X obj 1332 183 inlet;
#X obj 1389 915 outlet~;
#X connect 0 0 32 0;
#X connect 1 0 36 0;
#X connect 2 0 1 0;
#X connect 3 0 18 0;
#X connect 4 0 3 0;
#X connect 7 0 8 0;
#X connect 7 0 8 1;
#X connect 8 0 11 0;
#X connect 8 0 11 1;
#X connect 8 0 18 1;
#X connect 9 0 10 0;
#X connect 10 0 15 0;
#X connect 11 0 12 0;
#X connect 11 0 12 1;
#X connect 11 0 13 0;
#X connect 12 0 16 0;
#X connect 13 0 10 1;
#X connect 14 0 4 0;
#X connect 15 0 4 1;
#X connect 16 0 17 0;
#X connect 17 0 14 0;
#X connect 18 0 39 0;
#X connect 18 0 42 0;
#X connect 18 0 50 0;
#X connect 18 0 51 0;
#X connect 18 0 52 0;
#X connect 18 0 53 0;
#X connect 19 0 48 0;
#X connect 20 0 48 0;
#X connect 21 0 53 1;
#X connect 22 0 52 1;
#X connect 23 0 22 0;
#X connect 23 0 21 0;
#X connect 23 0 40 0;
#X connect 23 0 41 0;
#X connect 23 0 43 0;
#X connect 23 0 44 0;
#X connect 24 0 7 0;
#X connect 24 0 7 1;
#X connect 25 0 24 0;
#X connect 26 0 39 0;
#X connect 26 0 42 0;
#X connect 26 0 50 0;
#X connect 26 0 51 0;
#X connect 26 0 52 0;
#X connect 26 0 53 0;
#X connect 27 0 28 0;
#X connect 27 0 28 1;
#X connect 28 0 29 0;
#X connect 28 0 29 1;
#X connect 29 0 30 0;
#X connect 29 0 30 1;
#X connect 30 0 26 1;
#X connect 30 0 1 1;
#X connect 31 0 27 0;
#X connect 31 0 27 1;
#X connect 32 0 2 0;
#X connect 33 0 23 0;
#X connect 34 0 48 0;
#X connect 35 0 48 0;
#X connect 36 0 26 0;
#X connect 37 0 25 0;
#X connect 37 1 49 0;
#X connect 38 0 37 0;
#X connect 39 0 34 0;
#X connect 40 0 39 1;
#X connect 41 0 42 1;
#X connect 42 0 35 0;
#X connect 43 0 50 1;
#X connect 44 0 51 1;
#X connect 45 0 48 0;
#X connect 46 0 33 0;
#X connect 48 0 56 0;
#X connect 49 0 54 0;
#X connect 50 0 19 0;
#X connect 51 0 45 0;
#X connect 52 0 20 0;
#X connect 53 0 20 0;
#X connect 54 0 31 0;
#X connect 55 0 38 0;
#X restore 686 36 pd gun_shot~;
#X obj 81 -46 inlet;
#X obj 388 -49 inlet;
#X obj 549 -49 inlet;
#X obj 678 -33 inlet;
#X obj 407 121 outlet~;
#X obj 243 -3 line~;
#X obj 243 24 *~;
#X obj 296 57 *~;
#X obj 290 17 osc~ 2000;
#X msg 243 -24 1 \, 0 100;
#X obj 206 -50 inlet;
#X connect 0 0 10 0;
#X connect 1 0 0 0;
#X connect 2 0 10 0;
#X connect 3 0 2 0;
#X connect 4 0 10 0;
#X connect 5 0 10 0;
#X connect 6 0 0 0;
#X connect 7 0 2 0;
#X connect 8 0 4 0;
#X connect 9 0 5 0;
#X connect 11 0 12 0;
#X connect 11 0 12 1;
#X connect 12 0 13 1;
#X connect 13 0 10 0;
#X connect 14 0 13 0;
#X connect 15 0 11 0;
#X connect 16 0 15 0;
#X restore 714 125 pd PERCUSION;
#X obj 706 197 output~;
#X obj 741 66 bng 15 250 50 0 empty empty empty 17 7 0 10 -262144 -1
-1;
#X obj 779 70 bng 15 250 50 0 empty empty empty 17 7 0 10 -262144 -1
-1;
#X obj 810 65 bng 15 250 50 0 empty empty empty 17 7 0 10 -262144 -1
-1;
#X obj 682 81 bng 15 250 50 0 empty empty empty 17 7 0 10 -262144 -1
-1;
#X obj 903 234 output~;
#N canvas 458 533 450 300 BASS_SYNTH 0;
#X obj 176 137 *~ 0.3;
#X obj 176 160 *~;
#X obj 253 113 abs~;
#X obj 253 90 osc~ 0.1;
#X obj 180 99 osc~ 80;
#X obj 111 90 osc~ 80.1;
#X obj 188 208 outlet~;
#X obj 56 36 inlet;
#X obj 138 39 inlet;
#X obj 213 32 inlet;
#X connect 0 0 1 0;
#X connect 1 0 6 0;
#X connect 2 0 1 1;
#X connect 3 0 2 0;
#X connect 4 0 0 0;
#X connect 5 0 0 0;
#X connect 7 0 5 0;
#X connect 8 0 4 0;
#X connect 9 0 3 0;
#X restore 910 139 pd BASS_SYNTH;
#X obj 1152 242 output~;
#N canvas 618 576 496 559 SYNTH 0;
#X obj 300 349 osc~;
#X floatatom 300 327 5 0 0 0 - - -, f 5;
#X obj 300 298 mtof;
#X obj 300 377 *~;
#X obj 380 379 line~;
#X obj 300 406 *~;
#X obj 341 329 line~;
#X msg 341 307 \$1 50;
#X msg 380 357 \$1 50;
#X obj 302 523 outlet~;
#X obj 241 195 inlet;
#X obj 338 201 inlet;
#X obj 423 205 inlet;
#X connect 0 0 3 0;
#X connect 1 0 0 0;
#X connect 2 0 1 0;
#X connect 3 0 5 0;
#X connect 4 0 5 1;
#X connect 5 0 9 0;
#X connect 6 0 3 1;
#X connect 7 0 6 0;
#X connect 8 0 4 0;
#X connect 10 0 2 0;
#X connect 11 0 7 0;
#X connect 12 0 8 0;
#X restore 1166 168 pd SYNTH;
#X obj 1232 69 hsl 128 15 0 1 0 0 empty empty empty -2 -8 0 10 -262144
-1 -1 0 1;
#X obj 1169 -6 hsl 128 15 0 127 0 0 empty empty empty -2 -8 0 10 -262144
-1 -1 0 1;
#X obj 1200 31 hsl 128 15 0 127 0 0 empty empty empty -2 -8 0 10 -262144
-1 -1 0 1;
#X floatatom 346 9 3 0 0 0 - - -, f 3;
#X floatatom 373 9 3 0 0 0 - - -, f 3;
#X floatatom 400 9 3 0 0 0 - - -, f 3;
#X floatatom 427 9 3 0 0 0 - - -, f 3;
#X text 306 8 from;
#X obj 346 -15 unpack 0 0 0 0 0;
#X floatatom 455 9 8 0 0 0 - - -, f 8;
#X obj 281 -38 route received from;
#X floatatom 281 30 5 0 0 0 - - -, f 5;
#X text 321 30 bytes;
#X msg 160 -116 status;
#X obj 163 275 s outpus-1;
#X obj 185 251 s outpus-2;
#X obj 204 228 s outpus-3;
#X obj 226 203 s outpus-4;
#X obj 244 177 s outpus-5;
#X obj 104 -224 import mrpeach;
#X obj 160 -79 mrpeach/udpreceive 12000;
#X obj 160 -27 mrpeach/unpackOSC;
#X obj 158 77 mrpeach/routeOSC /wek/outputs;
#X obj 160 0 mrpeach/pipelist;
#X obj 608 -55 r outpus-4;
#X obj 681 -54 r outpus-5;
#X obj 608 -26 sel 2;
#X obj 607 5 speedlim 800;
#X obj 680 -28 sel 2;
#X obj 688 3 speedlim 800;
#X obj 769 -29 sel 2;
#X obj 770 3 speedlim 800;
#X obj 766 -58 r outpus-6;
#X obj 159 121 unpack f f f f f f;
#X obj 264 153 s outpus-6;
#X obj 1043 -128 r outpus-2;
#X obj 917 -131 r outpus-1;
#X obj 1123 -126 r outpus-3;
#X obj 906 -107 autoscale 0 127;
#X obj 1018 -82 autoscale 0 127;
#X obj 1145 -56 autoscale 20 60;
#X obj 303 -226 cnv 15 200 30 empty empty HuzzBalls-OUTPUT 20 12 0
18 -260097 -1 0;
#X obj 60 89 print unpacked;
#X obj 60 64 spigot;
#X obj 91 43 tgl 15 0 empty empty empty 17 7 0 10 -262144 -1 -1 0 1
;
#X text 146 -157 OSC Server;
#X text 220 -141 Receives osc messages from Wekinator;
#X connect 0 0 11 2;
#X connect 1 0 11 0;
#X connect 2 0 11 1;
#X connect 3 0 4 1;
#X connect 4 0 5 0;
#X connect 4 0 5 1;
#X connect 6 0 4 2;
#X connect 7 0 4 3;
#X connect 8 0 4 4;
#X connect 9 0 4 0;
#X connect 11 0 10 0;
#X connect 11 0 10 1;
#X connect 13 0 12 0;
#X connect 13 0 12 1;
#X connect 14 0 13 2;
#X connect 15 0 13 0;
#X connect 16 0 13 1;
#X connect 22 0 17 0;
#X connect 22 1 18 0;
#X connect 22 2 19 0;
#X connect 22 3 20 0;
#X connect 22 4 23 0;
#X connect 24 0 25 0;
#X connect 24 1 22 0;
#X connect 27 0 34 0;
#X connect 34 0 35 0;
#X connect 34 1 24 0;
#X connect 35 0 37 0;
#X connect 35 1 37 1;
#X connect 36 0 47 0;
#X connect 37 0 36 0;
#X connect 37 0 57 0;
#X connect 38 0 40 0;
#X connect 39 0 42 0;
#X connect 40 0 41 0;
#X connect 41 0 9 0;
#X connect 42 0 43 0;
#X connect 43 0 7 0;
#X connect 44 0 45 0;
#X connect 45 0 8 0;
#X connect 46 0 44 0;
#X connect 47 0 28 0;
#X connect 47 1 29 0;
#X connect 47 2 30 0;
#X connect 47 3 31 0;
#X connect 47 4 32 0;
#X connect 47 5 48 0;
#X connect 49 0 53 0;
#X connect 49 0 14 0;
#X connect 50 0 52 0;
#X connect 51 0 0 0;
#X connect 51 0 54 0;
#X connect 52 0 1 0;
#X connect 52 0 16 0;
#X connect 53 0 2 0;
#X connect 54 0 15 0;
#X connect 57 0 56 0;
#X connect 58 0 57 1;
