#N canvas 1 77 952 704 10;
#X obj 414 225 list;
#X obj 414 271 list trim;
#X obj 414 28 inlet;
#X text 457 28 data;
#X obj 530 169 purepd/float_argument \$1 100;
#X obj 437 194 list split;
#X text 550 150 size of the array (default = 100);
#X obj 414 247 list prepend 0;
#X floatatom 552 205 5 0 0 0 - - -, f 5;
#X obj 414 163 autoscale 0 1;
#X msg 421 138 reset;
#X obj 414 295 s \$1-plot_sign;
#X obj 414 79 spigot;
#X obj 393 1 r plotin_\$1;
#X text 443 -37 comment;
#X obj 421 105 r \$1plotreset;
#X obj 447 53 r \$1ploton;
#X obj 530 123 r \$1plotsize;
#X obj 529 294 s \$1-plot_sign;
#X msg 530 246 resize \$1;
#X obj 237 167 r \$1plotreset;
#X obj 177 353 s \$1plotmin;
#X msg 525 364 yticks 0 0.1 5;
#X obj 523 399 s \$1-plot_sign;
#X obj 525 336 loadbang;
#X msg 321 383 xticks 0 5 1;
#X obj 336 333 r \$1plotreset;
#X obj 81 299 track_max;
#X obj 81 339 s \$1plotmax;
#X obj 179 313 track_min;
#X obj 565 -30 loadbang;
#X obj 565 8 symbol \$1;
#X obj 565 37 s \$1plot_auto_id;
#X obj 10 11 cnv 15 364 115 empty \$1plot_auto_id \$1 2 8 0 12 -99865
-262144 0;
#X obj 162 -68 loadbang;
#X msg 161 -45 100;
#X obj 333 13 bng 15 250 50 0 \$1plotreset \$1plotreset_init empty
17 7 0 8 -66577 -257985 -262144;
#X obj 352 13 tgl 15 0 \$1ploton \$1ploton_init empty 17 7 0 10 -1
-4034 -1 0 1;
#X obj 174 24 hsl 127 15 20 1000 0 0 \$1plotsize_init \$1plotsize_init2
samples 2 7 0 10 -66577 -257985 -257985 1029 1;
#X obj 278 24 nbx 3 15 20 1000 0 0 \$1plotsize \$1plotsize_init empty
0 -8 0 10 -66577 -257985 -257985 100 256 0;
#X obj 200 -25 int;
#X obj 316 44 nbx 5 14 -1e+37 1e+37 0 0 empty \$1plotmax empty 0 -8
0 10 -66577 -262144 -1 0 256 0;
#X obj 315 107 nbx 5 14 -1e+37 1e+37 0 0 empty \$1plotmin empty 0 -8
0 10 -66577 -262144 -1 0 256 0;
#X obj 243 -49 r \$1plotreset;
#X obj 12 43 cnv 15 300 80 empty empty empty 20 12 0 14 -228856 -66577
0;
#N canvas 1 77 450 300 (subpatch) 0;
#X array \$1-plot_sign 100 float 0 black black;
#X coords 0 1 99 0 300 80 1;
#X restore 12 43 graph;
#X obj 226 208 t b b;
#X msg 159 252 0;
#N canvas 266 536 450 300 global 0;
#X obj 213 -92 r reset_all_big_plots;
#X obj 209 -40 s \$1plotreset_init;
#X obj 71 -89 r on_all_big_plots;
#X obj 67 -37 s \$1ploton_init;
#X obj 62 26 r size_all_big_plots;
#X obj 60 90 s \$1plotsize;
#X obj 100 133 r reset_samples_all_big_plots;
#X obj 112 187 s \$1plotreset_samples_init;
#X connect 0 0 1 0;
#X connect 2 0 3 0;
#X connect 4 0 5 0;
#X connect 6 0 7 0;
#X restore 280 480 pd global;
#X connect 0 0 5 0;
#X connect 0 0 7 0;
#X connect 1 0 11 0;
#X connect 2 0 12 0;
#X connect 4 0 5 1;
#X connect 4 0 8 0;
#X connect 4 0 19 0;
#X connect 5 0 0 1;
#X connect 5 2 0 1;
#X connect 7 0 1 0;
#X connect 9 0 0 0;
#X connect 10 0 9 0;
#X connect 12 0 9 0;
#X connect 12 0 27 0;
#X connect 12 0 29 0;
#X connect 13 0 12 0;
#X connect 15 0 10 0;
#X connect 16 0 12 1;
#X connect 17 0 4 0;
#X connect 19 0 18 0;
#X connect 20 0 46 0;
#X connect 22 0 23 0;
#X connect 24 0 25 0;
#X connect 24 0 22 0;
#X connect 25 0 23 0;
#X connect 26 0 22 0;
#X connect 26 0 25 0;
#X connect 27 0 28 0;
#X connect 29 0 21 0;
#X connect 30 0 31 0;
#X connect 31 0 32 0;
#X connect 34 0 35 0;
#X connect 35 0 38 0;
#X connect 38 0 40 0;
#X connect 40 0 39 0;
#X connect 43 0 35 0;
#X connect 46 0 47 0;
#X connect 46 1 29 2;
#X connect 46 1 27 2;
#X connect 47 0 27 0;
#X connect 47 0 29 0;
#X coords 0 -1 1 1 367 118 1 10 10;
